<?xml version="1.0" ?><svg data-name="Layer 1" id="Layer_1" viewBox="0 0 64 64" xmlns="http://www.w3.org/2000/svg"><path d="M40,54c0-.55-.45-1-1-1v2c.55,0,1-.45,1-1Z"/><path d="M61.62,6.22l-5-4c-.18-.14-.4-.22-.62-.22H29c-.55,0-1,.45-1,1V24.47c-2.01-2.13-4.85-3.47-8-3.47-5.04,0-9.28,3.41-10.58,8.03-.14-.02-.28-.03-.42-.03-1.65,0-3,1.35-3,3s1.35,3,3,3c0,1.1,.9,2,2,2h1v.36c0,2,1.19,3.81,3.03,4.6l.97,.42v.63h-2c-6.07,0-11,4.93-11,11v6h-1v2H52v-2h-2.67l1.71-6h9.96c.55,0,1-.45,1-1V7c0-.3-.14-.59-.38-.78ZM9,32v1c-.55,0-1-.45-1-1s.45-1,1-1c.02,0,.03,0,.05,0-.03,.33-.05,.66-.05,.99Zm3,0v3h-1v-3c0-4.96,4.04-9,9-9s9,4.04,9,9v3.18l-1,.2v-3.38c0-3.86-3.14-7-7-7h-2c-3.86,0-7,3.14-7,7Zm11.99-3.98c-2.33,.1-3.57,1.23-4.67,2.24-1.05,.97-1.88,1.74-3.66,1.74-.61,0-1.14-.09-1.63-.28,.15-2.62,2.31-4.72,4.97-4.72h2c1.13,0,2.16,.39,2.99,1.02Zm-8.18,12.1c-1.1-.47-1.82-1.56-1.82-2.76v-3.56c.52,.13,1.07,.2,1.66,.2,2.56,0,3.87-1.2,5.02-2.27,1.05-.97,1.88-1.73,3.65-1.73,.49,0,.91,.08,1.32,.2,.22,.56,.35,1.16,.35,1.8v3.78l-6.2,1.24,.39,1.96,5.77-1.15c-.16,1.01-.82,1.88-1.78,2.29h0s-3,1.29-3,1.29c-.75,.32-1.61,.32-2.36,0l-3-1.29Zm6.18,3.11v.77c0,1.1-.9,2-2,2s-2-.9-2-2v-.77h.03c.62,.28,1.3,.42,1.97,.42s1.34-.13,1.97-.4h.03Zm-4,16.76h-2v-2h1c.55,0,1,.45,1,1v1Zm2,0v-1c0-1.65-1.35-3-3-3h-6v-2.59l1.71-1.71-1.41-1.41-2,2c-.19,.19-.29,.44-.29,.71v4c0,.55,.45,1,1,1h4v2H5v-6c0-4.96,4.04-9,9-9h2.13c.44,1.72,2.01,3,3.87,3s3.43-1.28,3.87-3h2.13c1.46,0,2.85,.35,4.11,1h-.11c-.45,0-.84,.3-.96,.73l-3.79,13.27h-5.25Zm27.25,0H27.33l3.43-12h19.92l-3.43,12Zm12.75-8h-8.39l1.35-4.73c.09-.3,.03-.63-.16-.88-.19-.25-.49-.4-.8-.4h-18.47c-2.05-1.93-4.7-3-7.53-3h-2v-.63l.97-.42c1.82-.78,3-2.56,3.03-4.54l1.4-.28c.93-.19,1.61-1.01,1.61-1.96v-.18c1.65,0,3-1.35,3-3s-1.35-3-3-3c-.14,0-.28,.01-.42,.03-.15-.55-.35-1.08-.58-1.59V4h25.65l4.35,3.48V52ZM30.95,31.01s.03,0,.05,0c.55,0,1,.45,1,1s-.45,1-1,1v-1c0-.33-.02-.66-.05-.99Z"/><rect height="2" width="8" x="41" y="8"/><rect height="2" width="20" x="35" y="14"/><rect height="2" width="20" x="35" y="20"/><rect height="2" width="20" x="35" y="26"/><rect height="2" width="20" x="35" y="32"/></svg>